<svg width="4285" height="7216" viewBox="0 0 4285 7216" fill="none" xmlns="http://www.w3.org/2000/svg">
<path d="M3756.01 6757.35C3579.22 6986.3 3158.09 6954.2 2884.12 6949.51C2956.07 6918.46 3018.28 6874.12 3064.15 6811.15C3725.43 5902.89 3723.42 2610.15 3293.5 1513.07C3286.9 1496.35 3279.26 1480.68 3270.56 1466.06C3507.07 1518.9 3882.24 1512.98 3985.35 1761.14C4415.28 2795.72 4417.19 5900.89 3756.01 6757.35Z" fill="#81C2FE"/>
<path d="M3064.15 6811.15C3018.28 6874.12 2956.07 6918.46 2884.12 6949.51C2821.43 6948.37 2766.48 6948.65 2723.96 6953.91C2689.17 6958.21 2672.16 6979.04 2661.17 7006.37C2637.86 7063.61 2640.72 7148.94 2560.17 7166.81C2367.99 7209.52 2108.07 7228.73 1925.17 7206.18C1861.53 7198.34 1807.15 7185.54 1768.35 7166.81C1666.96 7117.98 1676.33 7012.48 1610.01 6964.8C1383.72 6802.07 895.888 7253.48 425.063 6620.8C-59.1413 5970.17 -108.355 2687.83 169.63 1942.79C252.385 1721 431.656 1565.92 659.281 1498.74C856.231 1440.55 1061.02 1488.71 1119.79 1375C1140.24 1335.25 1134.79 1291.58 1127.14 1250.2C1117.4 1196.59 1103.92 1147.1 1138.61 1115.56C1148.74 1106.39 1161.74 1099.8 1264.27 1100.08C1281 1100.08 1300.2 1100.27 1321.99 1100.75C1437.91 1102.95 1496.2 1104.29 1511.68 1115.56C1608.86 1186.56 1482.06 1394.39 1575.42 1487.37C1664 1575.57 1909.69 1519.09 1949.82 1415.13C1971.61 1358.56 1928.99 1296.74 1951.45 1254.41C1953.45 1250.39 1956.13 1246.67 1959.47 1243.03C1978.97 1222.01 2014.33 1233.86 2037.93 1233.67C2047.29 1233.57 2054.84 1231.57 2058.67 1224.97C2059.43 1223.73 2060 1222.39 2060.48 1220.87C2067.27 1198.41 2064.3 1100.94 2058.86 970.128C2057.42 935.346 2055.8 898.271 2054.08 859.571C2041.18 558.953 2026.08 163.64 2073.57 40.8511C2094.88 -14.1889 2227.04 -13.0422 2250.74 40.8511C2289.35 128.858 2252.37 495.026 2234.31 799.466C2223.7 978.346 2219.49 1135.92 2240.99 1203.28C2253.7 1243.03 2326.62 1222.39 2357.48 1271.22C2406.41 1348.34 2295.37 1469.69 2364.75 1494.44C2446.74 1523.78 2646.94 1541.93 2760.37 1484.79C2838.72 1445.33 2769.83 1324.26 2745.46 1230.8C2732.37 1180.45 2732.17 1138.11 2774.89 1120.72C2858.03 1086.9 3022.3 1066.83 3143.85 1113.46C3218.39 1142.03 3160.95 1258.8 3150.35 1347.09C3145 1391.91 3151.59 1429.46 3193.54 1444.47C3216.86 1452.78 3242.75 1459.85 3270.56 1466.06C3279.26 1480.68 3286.9 1496.35 3293.5 1513.07C3723.42 2610.15 3725.43 5902.89 3064.15 6811.15Z" fill="#C1DDFE"/>
<path d="M2322.89 6888.45H2031.72C1995.51 6888.45 1966.16 6917.78 1966.16 6953.96C1966.16 6990.13 1995.51 7019.46 2031.72 7019.46H2322.89C2359.1 7019.46 2388.44 6990.13 2388.44 6953.96C2388.44 6917.78 2359.1 6888.45 2322.89 6888.45Z" fill="white" fill-opacity="0.59"/>
<path d="M3947.13 4086.76C3846.31 6049.19 3711 6251.86 3525.42 6401.31C3252.31 6621.38 2898.45 6653.19 2405.36 6636C2720.04 6620.9 2968.11 6559.17 3172.52 6397.3C3364.4 6245.36 3504.3 6039.25 3608.65 4043.96C3677.65 2723.09 3609.04 2028.5 3279.83 1911.35C3243.42 1898.45 3204.34 1885.55 3164.11 1873.41C3303.05 1888.32 3486.62 1937.82 3629.2 1989.42C3947.51 2104.56 4013.93 2787.69 3947.13 4086.76Z" fill="#BD1D1D"/>
<path d="M3608.65 4043.96C3504.3 6039.25 3364.4 6245.36 3172.52 6397.3C2968.11 6559.17 2720.04 6620.9 2405.36 6636C2263.93 6631.12 2111.03 6622.24 1945.24 6612.49C1363.56 6578.38 978.93 6586.98 713.272 6341.3C310.39 5968.73 430.509 5025.98 357.979 3871.38C303.987 2436.24 506.766 2055.83 713.272 1989.42C842.183 1947.85 1136.7 1976.04 1203.69 1875.23C1207.89 1868.92 1211.24 1862.04 1213.53 1854.68C1233.02 1792.38 1180.56 1695.01 1239.04 1633.66C1255.96 1615.99 1281.38 1629.17 1282.72 1603.56C1288.93 1481.35 1243.06 1369.65 1326.39 1348.72C1388.31 1333.14 1387.26 1526.26 1380.95 1603.56C1378.85 1629.94 1412.87 1610.25 1430.74 1625.06C1487.6 1672.08 1430.07 1786.27 1439.34 1860.9C1440.49 1870.45 1442.78 1879.43 1446.51 1887.46C1476.23 1951 1610.77 1986.07 2006.01 1915.46C2024.55 1912.21 2036.88 1894.44 2033.72 1875.9C2032.48 1868.83 2031.34 1861.85 2030.28 1854.88C2013.66 1746.42 2016.14 1657.36 2061.15 1631.75C2080.64 1620.67 2107.59 1630.99 2109.03 1625.35C2119.82 1584.55 2139.6 1061.57 2099.57 55.0881C2098.51 29.4793 2211.85 27.6637 2211.18 41.6148C2158.62 1110.59 2188.44 1598.79 2197.61 1622.01C2200.48 1629.36 2221.69 1619.33 2239.47 1628.98C2288.2 1655.36 2292.21 1749.76 2278.65 1858.32C2277.88 1864.91 2277.02 1871.5 2276.06 1878.1C2273.48 1896.44 2285.91 1913.64 2304.16 1916.89C2676.08 1981.77 2786.17 1908 2847.42 1874.46C2870.26 1861.95 2877.9 1835.76 2878.86 1804.61C2881.06 1731.61 2845.99 1631.37 2881.15 1617.13C2895.1 1611.5 2913.26 1627.93 2918.42 1617.8C2944.51 1566.01 2886.6 1347.48 2968.78 1344.13C3053.64 1340.69 3003.76 1587.7 3018.57 1610.54C3028.7 1626.31 3045.61 1615.51 3064.06 1628.12C3117.66 1664.72 3062.43 1800.03 3082.98 1850.29C3087.56 1861.66 3096.07 1868.73 3110.5 1869.3C3127.41 1869.97 3145.38 1871.41 3164.11 1873.41C3204.34 1885.55 3243.42 1898.45 3279.83 1911.35C3609.04 2028.5 3677.65 2723.09 3608.65 4043.96Z" fill="#D42020"/>
<path d="M2864.72 3158.83H1419.65C1313.1 3158.83 1226.72 3245.2 1226.72 3351.75V5259.23C1226.72 5365.78 1313.1 5452.16 1419.65 5452.16H2864.72C2971.27 5452.16 3057.65 5365.78 3057.65 5259.23V3351.75C3057.65 3245.2 2971.27 3158.83 2864.72 3158.83Z" fill="#EBF4FC"/>
<path d="M2813.88 3399.15H1470.49C1440.09 3399.15 1415.45 3423.79 1415.45 3454.19V3569.81C1415.45 3600.21 1440.09 3624.85 1470.49 3624.85H2813.88C2844.28 3624.85 2868.92 3600.21 2868.92 3569.81V3454.19C2868.92 3423.79 2844.28 3399.15 2813.88 3399.15Z" fill="#9AB7E1"/>
<path d="M1493.43 3932.73C1515.79 3937.99 1538.91 3937.41 1560.51 3929.29C1567.29 3926.71 1573.6 3923.08 1580.96 3924.42C1591.18 3926.33 1601.12 3930.72 1611.35 3933.02C1650.53 3941.81 1690.85 3941.81 1730.7 3939.04C1807.05 3933.59 1887.23 3917.54 1960.24 3948.88C1997.89 3965.03 2034.87 3984.71 2077.11 3976.88C2096.79 3973.25 2113.9 3962.64 2132.06 3954.99C2151.36 3946.87 2172.19 3944.58 2192.93 3943.15C2284.38 3937.22 2376.78 3932.44 2468.33 3938.65C2519.07 3942.09 2569.34 3951.84 2620.18 3954.23C2645.21 3955.38 2670.35 3954.23 2695.1 3949.64C2706.47 3947.54 2717.36 3944.1 2728.54 3941.04C2733.03 3939.8 2738.39 3940.18 2742.59 3939.04C2746.79 3937.89 2741.73 3950.5 2744.02 3933.88C2742.3 3946.68 2747.08 3959.49 2760.75 3963.31C2771.83 3966.37 2788.36 3959.49 2790.18 3946.59C2793.43 3922.51 2781.39 3901.29 2757.4 3893.65C2734.85 3886.48 2712.97 3896.99 2691.18 3901.87C2646.74 3911.9 2599.82 3905.78 2555.2 3900.15C2510.57 3894.51 2461.83 3889.54 2414.63 3888.49C2367.42 3887.44 2317.63 3888.97 2269.28 3891.26C2245.29 3892.41 2221.31 3893.65 2197.42 3895.08C2175.34 3896.42 2152.7 3898.23 2131.39 3904.64C2111.51 3910.66 2093.93 3922.41 2074.15 3928.33C2055.8 3933.78 2037.93 3929.39 2020.44 3922.89C2000.95 3915.72 1982.5 3905.88 1963.1 3898.52C1943.71 3891.16 1922.4 3886.96 1901.28 3884.47C1860.76 3879.6 1819.86 3883.14 1779.44 3886.86C1734.62 3890.97 1688.56 3896.42 1643.65 3890.4C1632.56 3888.87 1621.57 3886.48 1610.77 3883.33C1599.31 3879.98 1588.13 3875.68 1575.99 3875.87C1563.09 3876.16 1552.29 3882.09 1540.35 3885.62C1529.07 3888.97 1517.7 3889.16 1506.33 3886.39C1476.42 3879.31 1463.71 3925.37 1493.62 3932.44L1493.43 3932.73Z" fill="#9AB7E1"/>
<path d="M1515.22 4168.37C1535.57 4160.25 1556.31 4151.74 1578 4148.21C1598.07 4144.96 1616.22 4148.59 1634.57 4157C1655.31 4166.55 1675.76 4175.73 1698.5 4179.26C1721.24 4182.8 1743.41 4182.61 1765.97 4178.5C1786.42 4174.77 1804.76 4162.92 1825.02 4159.87C1834.1 4158.53 1842.7 4161.49 1851.3 4164.07C1862.1 4167.32 1872.99 4170.47 1883.98 4173.15C1927.18 4183.75 1972.85 4190.35 2017.38 4189.2C2061.92 4188.05 2104.82 4177.35 2136.84 4146.2H2103.01C2150.98 4191.59 2217.87 4187.67 2279.03 4182.13C2315.06 4178.88 2350.51 4177.93 2386.63 4179.45C2424.95 4181.08 2463.08 4182.8 2501.21 4177.45C2539.34 4172.1 2577.27 4158.15 2608.71 4133.3L2568.77 4122.79C2581 4158.15 2615.02 4170.28 2649.61 4171.91C2667.86 4172.77 2686.31 4170.57 2704.56 4169.23C2727.4 4167.51 2750.24 4165.89 2773.08 4164.17C2785.98 4163.21 2796.97 4153.85 2796.97 4140.28C2796.97 4128.05 2785.98 4115.43 2773.08 4116.39C2737.14 4119.06 2701.12 4122.79 2665.19 4124.13C2653.53 4124.61 2642.64 4124.41 2631.74 4121.45C2626.49 4120.02 2623.62 4119.25 2619.22 4116.01C2617.79 4114.95 2615.78 4112.66 2614.83 4110.08C2608.52 4091.83 2589.22 4088.2 2574.88 4099.57C2508.85 4151.93 2411.95 4129.38 2334.93 4130.72C2297.95 4131.39 2261.35 4137.51 2224.37 4137.98C2193.12 4138.46 2160.44 4134.83 2136.84 4112.47C2127.37 4103.49 2112.56 4103.3 2103.01 4112.47C2078.93 4135.98 2044.24 4141.23 2011.84 4141.52C1969.32 4141.81 1926.6 4135.21 1885.61 4124.22C1864.58 4118.59 1843.66 4109.7 1821.39 4112.37C1801.04 4114.86 1783.26 4125.27 1763.58 4130.15C1743.89 4135.02 1724.11 4135.79 1704.9 4132.06C1684.55 4128.14 1666.87 4119.06 1648.04 4111.04C1598.35 4089.92 1550.48 4103.01 1502.51 4122.31C1490.56 4127.09 1482.15 4138.27 1485.78 4151.74C1488.94 4163.11 1503.08 4173.24 1515.22 4168.47V4168.37Z" fill="#9AB7E1"/>
<path d="M1513.69 4415.86L1642.21 4369.7L1612.02 4346.68C1611.83 4394.07 1662.09 4410.89 1700.89 4415.95C1740.36 4421.11 1780.97 4421.3 1819.96 4411.94C1858.95 4402.58 1893.35 4382.22 1916.95 4349.92C1922.02 4342.95 1926.51 4335.3 1933.1 4329.48C1934.72 4328.04 1937.4 4325.94 1937.88 4326.23C1940.55 4328.04 1929.18 4325.65 1930.04 4324.7C1929.85 4324.7 1929.66 4324.6 1929.56 4324.51C1928.51 4323.93 1928.7 4324.98 1930.04 4327.47C1928.8 4334.54 1931.67 4345.82 1933.77 4352.79C1936.92 4363.59 1943.32 4373.81 1951.35 4381.65C1965.78 4395.6 1985.47 4403.44 2005.15 4406.4C2029.62 4410.03 2053.6 4405.25 2078.16 4404.96C2102.72 4404.68 2122.12 4417.39 2145.72 4424.94C2170.66 4432.96 2197.42 4432.01 2222.74 4426.85C2248.07 4421.69 2272.43 4411.27 2295.85 4400.28C2300.53 4398.08 2305.21 4395.6 2309.99 4393.69C2311.42 4393.12 2316.77 4392.83 2313.53 4392.45C2310.66 4392.06 2313.72 4392.26 2314.67 4393.69C2318.21 4399.04 2323.37 4406.02 2327.67 4411.84C2356.24 4450.45 2405.36 4458.28 2449.89 4447.49C2477.22 4440.89 2502.35 4427.8 2528.73 4418.34C2541.63 4413.76 2554.91 4409.74 2568.77 4409.17C2582.62 4408.6 2597.05 4410.32 2611.1 4411.37C2672.83 4415.86 2734.66 4420.35 2796.39 4424.94C2809.29 4425.89 2820.28 4413.28 2820.28 4401.05C2820.28 4387.38 2809.29 4378.11 2796.39 4377.16C2743.26 4373.24 2690.03 4369.42 2636.9 4365.5C2612.44 4363.68 2586.83 4359.67 2562.36 4361.87C2537.9 4364.07 2513.44 4372.86 2490.03 4382.6C2457.06 4396.17 2408.03 4419.3 2374.88 4393.31C2360.45 4381.94 2354.9 4362.82 2338.85 4352.5C2315.44 4337.31 2292.12 4349.64 2269.85 4359.96C2248.93 4369.61 2226.76 4378.4 2203.82 4381.94C2182.51 4385.18 2163.11 4381.65 2143.62 4372.86C2119.16 4361.77 2096.22 4356.14 2069.27 4357.57C2048.25 4358.62 2025.98 4363.3 2005.53 4357.95C1991.58 4354.32 1980.59 4347.73 1978.59 4334.16C1975.43 4313.04 1973.52 4292.59 1951.35 4282.65C1907.11 4262.68 1886.28 4321.35 1859.04 4342.76C1829.03 4366.26 1788.14 4372 1751.15 4371.9C1731.56 4371.9 1711.11 4370.85 1691.91 4366.55C1683.69 4364.74 1675.47 4362.35 1668.21 4357.86C1666.39 4356.71 1662.19 4353.46 1661.9 4353.08C1659.7 4350.4 1659.99 4350.31 1659.99 4346.77C1659.99 4332.25 1644.51 4318.39 1629.79 4323.74L1501.26 4369.9C1489.13 4374.29 1481 4386.14 1484.54 4399.33C1487.79 4411.08 1501.74 4420.35 1513.97 4416.05L1513.69 4415.86Z" fill="#9AB7E1"/>
<path d="M2053.98 4632.1L1970.37 5167.4C1967.98 5182.6 1976.29 5197.6 1990.63 5203.14C2136.55 5259.71 2268.52 5202.47 2292.5 5131.09C2310.94 5076.53 2273.29 4993.01 2192.16 4932.91C2173.72 4919.25 2174.48 4891.34 2193.79 4878.92C2246.82 4844.52 2275.68 4783.46 2266.13 4726.8C2253.13 4649.68 2170.47 4590.34 2081.7 4604.58C2067.46 4606.88 2056.18 4617.96 2053.98 4632.2V4632.1Z" stroke="#D42020" stroke-width="91" stroke-miterlimit="10"/>
</svg>
